<?xml version="1.0" encoding="UTF-8" standalone="no"?>
<!-- Created with Inkscape (http://www.inkscape.org/) -->

<svg
   width="41.964115mm"
   height="46.631947mm"
   viewBox="0 0 41.964115 46.631947"
   version="1.1"
   id="svg1876"
   inkscape:version="1.1 (c4e8f9e, 2021-05-24)"
   sodipodi:docname="snsea.svg"
   xmlns:inkscape="http://www.inkscape.org/namespaces/inkscape"
   xmlns:sodipodi="http://sodipodi.sourceforge.net/DTD/sodipodi-0.dtd"
   xmlns="http://www.w3.org/2000/svg"
   xmlns:svg="http://www.w3.org/2000/svg">
  <sodipodi:namedview
     id="namedview1878"
     pagecolor="#ffffff"
     bordercolor="#666666"
     borderopacity="1.0"
     inkscape:pageshadow="2"
     inkscape:pageopacity="0.0"
     inkscape:pagecheckerboard="0"
     inkscape:document-units="mm"
     showgrid="false"
     fit-margin-top="0"
     fit-margin-left="0"
     fit-margin-right="0"
     fit-margin-bottom="0"
     inkscape:zoom="2.86"
     inkscape:cx="-15.034965"
     inkscape:cy="140.73427"
     inkscape:window-width="2199"
     inkscape:window-height="1003"
     inkscape:window-x="1853"
     inkscape:window-y="25"
     inkscape:window-maximized="0"
     inkscape:current-layer="layer1" />
  <defs
     id="defs1873" />
  <g
     inkscape:label="Layer 1"
     inkscape:groupmode="layer"
     id="layer1"
     transform="translate(-48.962323,-22.358824)">
    <path
       style="fill:none;stroke:#000000;stroke-width:0.409449;stroke-linecap:butt;stroke-linejoin:miter;stroke-miterlimit:4;stroke-dasharray:none;stroke-opacity:1"
       d="m 72.39313,33.164545 0.03832,18.789512 13.104508,16.758652 -35.553915,0.07248 13.13767,-16.812146 -0.03832,-18.789511"
       id="path2511"
       sodipodi:nodetypes="cccccc" />
    <g
       id="g2993"
       transform="matrix(0.73758773,0,0,0.73758773,4.7716819,7.9445121)">
      <path
         style="fill:#f4d7d7;stroke:#800000;stroke-width:0.25;stroke-linecap:round;stroke-linejoin:round;stroke-miterlimit:4;stroke-dasharray:none"
         id="path2535"
         sodipodi:type="arc"
         sodipodi:cx="93.529251"
         sodipodi:cy="57.080505"
         sodipodi:rx="0.77480346"
         sodipodi:ry="0.77480346"
         sodipodi:start="2.0618796"
         sodipodi:end="2.0587555"
         sodipodi:open="true"
         sodipodi:arc-type="arc"
         d="m 93.163868,57.763745 a 0.77480346,0.77480346 0 0 1 -0.318141,-1.048089 0.77480346,0.77480346 0 0 1 1.047839,-0.31896 0.77480346,0.77480346 0 0 1 0.319778,1.04759 0.77480346,0.77480346 0 0 1 -1.04734,0.320597" />
      <path
         style="fill:none;stroke:#c83737;stroke-width:0.2;stroke-linecap:round;stroke-linejoin:round;stroke-miterlimit:4;stroke-dasharray:0.4, 0.4;stroke-dashoffset:0"
         id="path2865"
         sodipodi:type="arc"
         sodipodi:cx="93.529282"
         sodipodi:cy="57.079693"
         sodipodi:rx="5.3656759"
         sodipodi:ry="5.3656759"
         sodipodi:start="2.0618796"
         sodipodi:end="2.0587555"
         sodipodi:open="true"
         sodipodi:arc-type="arc"
         d="m 90.998929,61.811267 a 5.3656759,5.3656759 0 0 1 -2.203196,-7.258231 5.3656759,5.3656759 0 0 1 7.256508,-2.208864 5.3656759,5.3656759 0 0 1 2.21453,7.254781 5.3656759,5.3656759 0 0 1 -7.253048,2.220196" />
    </g>
    <g
       id="g2999"
       transform="matrix(0.73758773,0,0,0.73758773,13.745313,8.4070704)">
      <path
         style="fill:#f4d7d7;stroke:#800000;stroke-width:0.25;stroke-linecap:round;stroke-linejoin:round;stroke-miterlimit:4;stroke-dasharray:none"
         id="path2995"
         sodipodi:type="arc"
         sodipodi:cx="93.529251"
         sodipodi:cy="57.080505"
         sodipodi:rx="0.77480346"
         sodipodi:ry="0.77480346"
         sodipodi:start="2.0618796"
         sodipodi:end="2.0587555"
         sodipodi:open="true"
         sodipodi:arc-type="arc"
         d="m 93.163868,57.763745 a 0.77480346,0.77480346 0 0 1 -0.318141,-1.048089 0.77480346,0.77480346 0 0 1 1.047839,-0.31896 0.77480346,0.77480346 0 0 1 0.319778,1.04759 0.77480346,0.77480346 0 0 1 -1.04734,0.320597" />
      <path
         style="fill:none;stroke:#c83737;stroke-width:0.2;stroke-linecap:round;stroke-linejoin:round;stroke-miterlimit:4;stroke-dasharray:0.4, 0.4;stroke-dashoffset:0"
         id="path2997"
         sodipodi:type="arc"
         sodipodi:cx="93.529282"
         sodipodi:cy="57.079693"
         sodipodi:rx="5.3656759"
         sodipodi:ry="5.3656759"
         sodipodi:start="2.0618796"
         sodipodi:end="2.0587555"
         sodipodi:open="true"
         sodipodi:arc-type="arc"
         d="m 90.998929,61.811267 a 5.3656759,5.3656759 0 0 1 -2.203196,-7.258231 5.3656759,5.3656759 0 0 1 7.256508,-2.208864 5.3656759,5.3656759 0 0 1 2.21453,7.254781 5.3656759,5.3656759 0 0 1 -7.253048,2.220196" />
    </g>
    <g
       id="g3005"
       transform="matrix(0.73758773,0,0,0.73758773,9.0272179,1.1911613)">
      <path
         style="fill:#f4d7d7;stroke:#800000;stroke-width:0.25;stroke-linecap:round;stroke-linejoin:round;stroke-miterlimit:4;stroke-dasharray:none"
         id="path3001"
         sodipodi:type="arc"
         sodipodi:cx="93.529251"
         sodipodi:cy="57.080505"
         sodipodi:rx="0.77480346"
         sodipodi:ry="0.77480346"
         sodipodi:start="2.0618796"
         sodipodi:end="2.0587555"
         sodipodi:open="true"
         sodipodi:arc-type="arc"
         d="m 93.163868,57.763745 a 0.77480346,0.77480346 0 0 1 -0.318141,-1.048089 0.77480346,0.77480346 0 0 1 1.047839,-0.31896 0.77480346,0.77480346 0 0 1 0.319778,1.04759 0.77480346,0.77480346 0 0 1 -1.04734,0.320597" />
      <path
         style="fill:none;stroke:#c83737;stroke-width:0.2;stroke-linecap:round;stroke-linejoin:round;stroke-miterlimit:4;stroke-dasharray:0.4, 0.4;stroke-dashoffset:0"
         id="path3003"
         sodipodi:type="arc"
         sodipodi:cx="93.529282"
         sodipodi:cy="57.079693"
         sodipodi:rx="5.3656759"
         sodipodi:ry="5.3656759"
         sodipodi:start="2.0618796"
         sodipodi:end="2.0587555"
         sodipodi:open="true"
         sodipodi:arc-type="arc"
         d="m 90.998929,61.811267 a 5.3656759,5.3656759 0 0 1 -2.203196,-7.258231 5.3656759,5.3656759 0 0 1 7.256508,-2.208864 5.3656759,5.3656759 0 0 1 2.21453,7.254781 5.3656759,5.3656759 0 0 1 -7.253048,2.220196" />
    </g>
    <g
       id="g3011"
       transform="matrix(0.73758773,0,0,0.73758773,8.6571709,14.790374)">
      <path
         style="fill:#f4d7d7;stroke:#800000;stroke-width:0.25;stroke-linecap:round;stroke-linejoin:round;stroke-miterlimit:4;stroke-dasharray:none"
         id="path3007"
         sodipodi:type="arc"
         sodipodi:cx="93.529251"
         sodipodi:cy="57.080505"
         sodipodi:rx="0.77480346"
         sodipodi:ry="0.77480346"
         sodipodi:start="2.0618796"
         sodipodi:end="2.0587555"
         sodipodi:open="true"
         sodipodi:arc-type="arc"
         d="m 93.163868,57.763745 a 0.77480346,0.77480346 0 0 1 -0.318141,-1.048089 0.77480346,0.77480346 0 0 1 1.047839,-0.31896 0.77480346,0.77480346 0 0 1 0.319778,1.04759 0.77480346,0.77480346 0 0 1 -1.04734,0.320597" />
      <path
         style="fill:none;stroke:#c83737;stroke-width:0.2;stroke-linecap:round;stroke-linejoin:round;stroke-miterlimit:4;stroke-dasharray:0.4, 0.4;stroke-dashoffset:0"
         id="path3009"
         sodipodi:type="arc"
         sodipodi:cx="93.529282"
         sodipodi:cy="57.079693"
         sodipodi:rx="5.3656759"
         sodipodi:ry="5.3656759"
         sodipodi:start="2.0618796"
         sodipodi:end="2.0587555"
         sodipodi:open="true"
         sodipodi:arc-type="arc"
         d="m 90.998929,61.811267 a 5.3656759,5.3656759 0 0 1 -2.203196,-7.258231 5.3656759,5.3656759 0 0 1 7.256508,-2.208864 5.3656759,5.3656759 0 0 1 2.21453,7.254781 5.3656759,5.3656759 0 0 1 -7.253048,2.220196" />
    </g>
    <g
       id="g3017"
       transform="matrix(0.73758773,0,0,0.73758773,17.908337,15.160421)">
      <path
         style="fill:#f4d7d7;stroke:#800000;stroke-width:0.25;stroke-linecap:round;stroke-linejoin:round;stroke-miterlimit:4;stroke-dasharray:none"
         id="path3013"
         sodipodi:type="arc"
         sodipodi:cx="93.529251"
         sodipodi:cy="57.080505"
         sodipodi:rx="0.77480346"
         sodipodi:ry="0.77480346"
         sodipodi:start="2.0618796"
         sodipodi:end="2.0587555"
         sodipodi:open="true"
         sodipodi:arc-type="arc"
         d="m 93.163868,57.763745 a 0.77480346,0.77480346 0 0 1 -0.318141,-1.048089 0.77480346,0.77480346 0 0 1 1.047839,-0.31896 0.77480346,0.77480346 0 0 1 0.319778,1.04759 0.77480346,0.77480346 0 0 1 -1.04734,0.320597" />
      <path
         style="fill:none;stroke:#c83737;stroke-width:0.2;stroke-linecap:round;stroke-linejoin:round;stroke-miterlimit:4;stroke-dasharray:0.4, 0.4;stroke-dashoffset:0"
         id="path3015"
         sodipodi:type="arc"
         sodipodi:cx="93.529282"
         sodipodi:cy="57.079693"
         sodipodi:rx="5.3656759"
         sodipodi:ry="5.3656759"
         sodipodi:start="2.0618796"
         sodipodi:end="2.0587555"
         sodipodi:open="true"
         sodipodi:arc-type="arc"
         d="m 90.998929,61.811267 a 5.3656759,5.3656759 0 0 1 -2.203196,-7.258231 5.3656759,5.3656759 0 0 1 7.256508,-2.208864 5.3656759,5.3656759 0 0 1 2.21453,7.254781 5.3656759,5.3656759 0 0 1 -7.253048,2.220196" />
    </g>
    <g
       id="g3023"
       transform="matrix(0.73758773,0,0,0.73758773,17.445779,-1.4916766)">
      <path
         style="fill:#f4d7d7;stroke:#800000;stroke-width:0.25;stroke-linecap:round;stroke-linejoin:round;stroke-miterlimit:4;stroke-dasharray:none"
         id="path3019"
         sodipodi:type="arc"
         sodipodi:cx="93.529251"
         sodipodi:cy="57.080505"
         sodipodi:rx="0.77480346"
         sodipodi:ry="0.77480346"
         sodipodi:start="2.0618796"
         sodipodi:end="2.0587555"
         sodipodi:open="true"
         sodipodi:arc-type="arc"
         d="m 93.163868,57.763745 a 0.77480346,0.77480346 0 0 1 -0.318141,-1.048089 0.77480346,0.77480346 0 0 1 1.047839,-0.31896 0.77480346,0.77480346 0 0 1 0.319778,1.04759 0.77480346,0.77480346 0 0 1 -1.04734,0.320597" />
      <path
         style="fill:none;stroke:#c83737;stroke-width:0.2;stroke-linecap:round;stroke-linejoin:round;stroke-miterlimit:4;stroke-dasharray:0.4, 0.4;stroke-dashoffset:0"
         id="path3021"
         sodipodi:type="arc"
         sodipodi:cx="93.529282"
         sodipodi:cy="57.079693"
         sodipodi:rx="5.3656759"
         sodipodi:ry="5.3656759"
         sodipodi:start="2.0618796"
         sodipodi:end="2.0587555"
         sodipodi:open="true"
         sodipodi:arc-type="arc"
         d="m 90.998929,61.811267 a 5.3656759,5.3656759 0 0 1 -2.203196,-7.258231 5.3656759,5.3656759 0 0 1 7.256508,-2.208864 5.3656759,5.3656759 0 0 1 2.21453,7.254781 5.3656759,5.3656759 0 0 1 -7.253048,2.220196" />
    </g>
    <g
       id="g3029"
       transform="matrix(0.73758773,0,0,0.73758773,-0.44967601,-11.642055)">
      <path
         style="fill:#f4d7d7;stroke:#800000;stroke-width:0.25;stroke-linecap:round;stroke-linejoin:round;stroke-miterlimit:4;stroke-dasharray:none"
         id="path3025"
         sodipodi:type="arc"
         sodipodi:cx="93.529251"
         sodipodi:cy="57.080505"
         sodipodi:rx="0.77480346"
         sodipodi:ry="0.77480346"
         sodipodi:start="2.0618796"
         sodipodi:end="2.0587555"
         sodipodi:open="true"
         sodipodi:arc-type="arc"
         d="m 93.163868,57.763745 a 0.77480346,0.77480346 0 0 1 -0.318141,-1.048089 0.77480346,0.77480346 0 0 1 1.047839,-0.31896 0.77480346,0.77480346 0 0 1 0.319778,1.04759 0.77480346,0.77480346 0 0 1 -1.04734,0.320597" />
      <path
         style="fill:none;stroke:#c83737;stroke-width:0.2;stroke-linecap:round;stroke-linejoin:round;stroke-miterlimit:4;stroke-dasharray:0.4, 0.4;stroke-dashoffset:0"
         id="path3027"
         sodipodi:type="arc"
         sodipodi:cx="93.529282"
         sodipodi:cy="57.079693"
         sodipodi:rx="5.3656759"
         sodipodi:ry="5.3656759"
         sodipodi:start="2.0618796"
         sodipodi:end="2.0587555"
         sodipodi:open="true"
         sodipodi:arc-type="arc"
         d="m 90.998929,61.811267 a 5.3656759,5.3656759 0 0 1 -2.203196,-7.258231 5.3656759,5.3656759 0 0 1 7.256508,-2.208864 5.3656759,5.3656759 0 0 1 2.21453,7.254781 5.3656759,5.3656759 0 0 1 -7.253048,2.220196" />
    </g>
    <g
       id="g3035"
       transform="matrix(0.73758773,0,0,0.73758773,4.4534421,-5.2587513)">
      <path
         style="fill:#f4d7d7;stroke:#800000;stroke-width:0.25;stroke-linecap:round;stroke-linejoin:round;stroke-miterlimit:4;stroke-dasharray:none"
         id="path3031"
         sodipodi:type="arc"
         sodipodi:cx="93.529251"
         sodipodi:cy="57.080505"
         sodipodi:rx="0.77480346"
         sodipodi:ry="0.77480346"
         sodipodi:start="2.0618796"
         sodipodi:end="2.0587555"
         sodipodi:open="true"
         sodipodi:arc-type="arc"
         d="m 93.163868,57.763745 a 0.77480346,0.77480346 0 0 1 -0.318141,-1.048089 0.77480346,0.77480346 0 0 1 1.047839,-0.31896 0.77480346,0.77480346 0 0 1 0.319778,1.04759 0.77480346,0.77480346 0 0 1 -1.04734,0.320597" />
      <path
         style="fill:none;stroke:#c83737;stroke-width:0.2;stroke-linecap:round;stroke-linejoin:round;stroke-miterlimit:4;stroke-dasharray:0.4, 0.4;stroke-dashoffset:0"
         id="path3033"
         sodipodi:type="arc"
         sodipodi:cx="93.529282"
         sodipodi:cy="57.079693"
         sodipodi:rx="5.3656759"
         sodipodi:ry="5.3656759"
         sodipodi:start="2.0618796"
         sodipodi:end="2.0587555"
         sodipodi:open="true"
         sodipodi:arc-type="arc"
         d="m 90.998929,61.811267 a 5.3656759,5.3656759 0 0 1 -2.203196,-7.258231 5.3656759,5.3656759 0 0 1 7.256508,-2.208864 5.3656759,5.3656759 0 0 1 2.21453,7.254781 5.3656759,5.3656759 0 0 1 -7.253048,2.220196" />
    </g>
    <g
       id="g3041"
       transform="matrix(0.73758773,0,0,0.73758773,6.8587452,-15.712569)">
      <path
         style="fill:#f4d7d7;stroke:#800000;stroke-width:0.25;stroke-linecap:round;stroke-linejoin:round;stroke-miterlimit:4;stroke-dasharray:none"
         id="path3037"
         sodipodi:type="arc"
         sodipodi:cx="93.529251"
         sodipodi:cy="57.080505"
         sodipodi:rx="0.77480346"
         sodipodi:ry="0.77480346"
         sodipodi:start="2.0618796"
         sodipodi:end="2.0587555"
         sodipodi:open="true"
         sodipodi:arc-type="arc"
         d="m 93.163868,57.763745 a 0.77480346,0.77480346 0 0 1 -0.318141,-1.048089 0.77480346,0.77480346 0 0 1 1.047839,-0.31896 0.77480346,0.77480346 0 0 1 0.319778,1.04759 0.77480346,0.77480346 0 0 1 -1.04734,0.320597" />
      <path
         style="fill:none;stroke:#c83737;stroke-width:0.2;stroke-linecap:round;stroke-linejoin:round;stroke-miterlimit:4;stroke-dasharray:0.4, 0.4;stroke-dashoffset:0"
         id="path3039"
         sodipodi:type="arc"
         sodipodi:cx="93.529282"
         sodipodi:cy="57.079693"
         sodipodi:rx="5.3656759"
         sodipodi:ry="5.3656759"
         sodipodi:start="2.0618796"
         sodipodi:end="2.0587555"
         sodipodi:open="true"
         sodipodi:arc-type="arc"
         d="m 90.998929,61.811267 a 5.3656759,5.3656759 0 0 1 -2.203196,-7.258231 5.3656759,5.3656759 0 0 1 7.256508,-2.208864 5.3656759,5.3656759 0 0 1 2.21453,7.254781 5.3656759,5.3656759 0 0 1 -7.253048,2.220196" />
    </g>
    <g
       id="g3047"
       transform="matrix(0.73758773,0,0,0.73758773,-8.9607478,-13.862336)">
      <path
         style="fill:#f4d7d7;stroke:#800000;stroke-width:0.25;stroke-linecap:round;stroke-linejoin:round;stroke-miterlimit:4;stroke-dasharray:none"
         id="path3043"
         sodipodi:type="arc"
         sodipodi:cx="93.529251"
         sodipodi:cy="57.080505"
         sodipodi:rx="0.77480346"
         sodipodi:ry="0.77480346"
         sodipodi:start="2.0618796"
         sodipodi:end="2.0587555"
         sodipodi:open="true"
         sodipodi:arc-type="arc"
         d="m 93.163868,57.763745 a 0.77480346,0.77480346 0 0 1 -0.318141,-1.048089 0.77480346,0.77480346 0 0 1 1.047839,-0.31896 0.77480346,0.77480346 0 0 1 0.319778,1.04759 0.77480346,0.77480346 0 0 1 -1.04734,0.320597" />
      <path
         style="fill:none;stroke:#c83737;stroke-width:0.2;stroke-linecap:round;stroke-linejoin:round;stroke-miterlimit:4;stroke-dasharray:0.4, 0.4;stroke-dashoffset:0"
         id="path3045"
         sodipodi:type="arc"
         sodipodi:cx="93.529282"
         sodipodi:cy="57.079693"
         sodipodi:rx="5.3656759"
         sodipodi:ry="5.3656759"
         sodipodi:start="2.0618796"
         sodipodi:end="2.0587555"
         sodipodi:open="true"
         sodipodi:arc-type="arc"
         d="m 90.998929,61.811267 a 5.3656759,5.3656759 0 0 1 -2.203196,-7.258231 5.3656759,5.3656759 0 0 1 7.256508,-2.208864 5.3656759,5.3656759 0 0 1 2.21453,7.254781 5.3656759,5.3656759 0 0 1 -7.253048,2.220196" />
    </g>
    <g
       id="g3053"
       transform="matrix(0.73758773,0,0,0.73758773,-15.991634,-8.8667067)">
      <path
         style="fill:#f4d7d7;stroke:#800000;stroke-width:0.25;stroke-linecap:round;stroke-linejoin:round;stroke-miterlimit:4;stroke-dasharray:none"
         id="path3049"
         sodipodi:type="arc"
         sodipodi:cx="93.529251"
         sodipodi:cy="57.080505"
         sodipodi:rx="0.77480346"
         sodipodi:ry="0.77480346"
         sodipodi:start="2.0618796"
         sodipodi:end="2.0587555"
         sodipodi:open="true"
         sodipodi:arc-type="arc"
         d="m 93.163868,57.763745 a 0.77480346,0.77480346 0 0 1 -0.318141,-1.048089 0.77480346,0.77480346 0 0 1 1.047839,-0.31896 0.77480346,0.77480346 0 0 1 0.319778,1.04759 0.77480346,0.77480346 0 0 1 -1.04734,0.320597" />
      <path
         style="fill:none;stroke:#c83737;stroke-width:0.2;stroke-linecap:round;stroke-linejoin:round;stroke-miterlimit:4;stroke-dasharray:0.4, 0.4;stroke-dashoffset:0"
         id="path3051"
         sodipodi:type="arc"
         sodipodi:cx="93.529282"
         sodipodi:cy="57.079693"
         sodipodi:rx="5.3656759"
         sodipodi:ry="5.3656759"
         sodipodi:start="2.0618796"
         sodipodi:end="2.0587555"
         sodipodi:open="true"
         sodipodi:arc-type="arc"
         d="m 90.998929,61.811267 a 5.3656759,5.3656759 0 0 1 -2.203196,-7.258231 5.3656759,5.3656759 0 0 1 7.256508,-2.208864 5.3656759,5.3656759 0 0 1 2.21453,7.254781 5.3656759,5.3656759 0 0 1 -7.253048,2.220196" />
    </g>
    <g
       id="g3059"
       transform="matrix(0.73758773,0,0,0.73758773,-7.1105148,-5.7213096)">
      <path
         style="fill:#f4d7d7;stroke:#800000;stroke-width:0.25;stroke-linecap:round;stroke-linejoin:round;stroke-miterlimit:4;stroke-dasharray:none"
         id="path3055"
         sodipodi:type="arc"
         sodipodi:cx="93.529251"
         sodipodi:cy="57.080505"
         sodipodi:rx="0.77480346"
         sodipodi:ry="0.77480346"
         sodipodi:start="2.0618796"
         sodipodi:end="2.0587555"
         sodipodi:open="true"
         sodipodi:arc-type="arc"
         d="m 93.163868,57.763745 a 0.77480346,0.77480346 0 0 1 -0.318141,-1.048089 0.77480346,0.77480346 0 0 1 1.047839,-0.31896 0.77480346,0.77480346 0 0 1 0.319778,1.04759 0.77480346,0.77480346 0 0 1 -1.04734,0.320597" />
      <path
         style="fill:none;stroke:#c83737;stroke-width:0.2;stroke-linecap:round;stroke-linejoin:round;stroke-miterlimit:4;stroke-dasharray:0.4, 0.4;stroke-dashoffset:0"
         id="path3057"
         sodipodi:type="arc"
         sodipodi:cx="93.529282"
         sodipodi:cy="57.079693"
         sodipodi:rx="5.3656759"
         sodipodi:ry="5.3656759"
         sodipodi:start="2.0618796"
         sodipodi:end="2.0587555"
         sodipodi:open="true"
         sodipodi:arc-type="arc"
         d="m 90.998929,61.811267 a 5.3656759,5.3656759 0 0 1 -2.203196,-7.258231 5.3656759,5.3656759 0 0 1 7.256508,-2.208864 5.3656759,5.3656759 0 0 1 2.21453,7.254781 5.3656759,5.3656759 0 0 1 -7.253048,2.220196" />
    </g>
  </g>
</svg>
