<?xml version="1.0" encoding="UTF-8" standalone="no"?>
<!-- Created with Inkscape (http://www.inkscape.org/) -->

<svg
   width="64.92038mm"
   height="45.122402mm"
   viewBox="0 0 64.92038 45.122402"
   version="1.1"
   id="svg5"
   inkscape:version="1.1 (c4e8f9e, 2021-05-24)"
   sodipodi:docname="taskalloc.svg"
   xmlns:inkscape="http://www.inkscape.org/namespaces/inkscape"
   xmlns:sodipodi="http://sodipodi.sourceforge.net/DTD/sodipodi-0.dtd"
   xmlns="http://www.w3.org/2000/svg"
   xmlns:svg="http://www.w3.org/2000/svg">
  <sodipodi:namedview
     id="namedview7"
     pagecolor="#ffffff"
     bordercolor="#666666"
     borderopacity="1.0"
     inkscape:pageshadow="2"
     inkscape:pageopacity="0.0"
     inkscape:pagecheckerboard="0"
     inkscape:document-units="mm"
     showgrid="false"
     fit-margin-top="0"
     fit-margin-left="0"
     fit-margin-right="0"
     fit-margin-bottom="0"
     inkscape:zoom="1.33"
     inkscape:cx="-101.12782"
     inkscape:cy="203.38346"
     inkscape:window-width="2138"
     inkscape:window-height="995"
     inkscape:window-x="1857"
     inkscape:window-y="25"
     inkscape:window-maximized="0"
     inkscape:current-layer="layer1" />
  <defs
     id="defs2" />
  <g
     inkscape:label="Layer 1"
     inkscape:groupmode="layer"
     id="layer1"
     transform="translate(-21.399479,-19.513537)">
    <g
       id="g1324">
      <path
         style="fill:#cccccc;stroke:#000000;stroke-width:0.153519px;stroke-linecap:butt;stroke-linejoin:miter;stroke-opacity:1"
         d="m 57.207749,42.211945 5.839049,-4.412346 -4.272724,6.099269 z"
         id="path879" />
      <path
         style="fill:none;stroke:#999999;stroke-width:0.765;stroke-linecap:butt;stroke-linejoin:miter;stroke-miterlimit:4;stroke-dasharray:2.295, 0.765;stroke-dashoffset:0;stroke-opacity:1"
         d="m 57.207749,43.270279 c -5.304929,3.332262 -7.824771,-3.411709 -15.317983,0 -6.674185,4.225626 -0.07948,10.662392 -4.97337,14.522243 -4.11132,3.448204 -9.283626,3.448203 -15.516917,0"
         id="path1012"
         sodipodi:nodetypes="cccc" />
    </g>
    <path
       style="fill:#e580ff;stroke:#800080;stroke-width:0.25;stroke-linecap:round;stroke-linejoin:round;stroke-miterlimit:4;stroke-dasharray:none;stroke-dashoffset:0"
       id="path1394"
       sodipodi:type="arc"
       sodipodi:cx="62.067707"
       sodipodi:cy="28.646633"
       sodipodi:rx="2.2444088"
       sodipodi:ry="2.2444088"
       sodipodi:start="2.0618818"
       sodipodi:end="2.0587471"
       sodipodi:arc-type="arc"
       d="m 61.009281,30.625801 a 2.2444088,2.2444088 0 0 1 -0.921571,-3.036042 2.2444088,2.2444088 0 0 1 3.03532,-0.92395 2.2444088,2.2444088 0 0 1 0.926328,3.034594 2.2444088,2.2444088 0 0 1 -3.033868,0.928706"
       sodipodi:open="true" />
    <path
       style="fill:#e9afaf;stroke:#800000;stroke-width:0.25;stroke-linecap:round;stroke-linejoin:round;stroke-miterlimit:4;stroke-dasharray:none;stroke-dashoffset:0"
       id="path1592"
       sodipodi:type="arc"
       sodipodi:cx="47.545464"
       sodipodi:cy="40.184853"
       sodipodi:rx="2.2444088"
       sodipodi:ry="2.2444088"
       sodipodi:start="2.0618818"
       sodipodi:end="2.0587471"
       sodipodi:arc-type="arc"
       d="m 46.487038,42.164021 a 2.2444088,2.2444088 0 0 1 -0.921571,-3.036043 2.2444088,2.2444088 0 0 1 3.035319,-0.92395 2.2444088,2.2444088 0 0 1 0.926328,3.034594 2.2444088,2.2444088 0 0 1 -3.033867,0.928707"
       sodipodi:open="true" />
    <path
       style="fill:#aade87;stroke:#008000;stroke-width:0.25;stroke-linecap:round;stroke-linejoin:round;stroke-miterlimit:4;stroke-dasharray:none;stroke-dashoffset:0"
       id="path1594"
       sodipodi:type="arc"
       sodipodi:cx="75.595284"
       sodipodi:cy="38.792309"
       sodipodi:rx="2.2444088"
       sodipodi:ry="2.2444088"
       sodipodi:start="2.0618818"
       sodipodi:end="2.0587471"
       sodipodi:arc-type="arc"
       d="m 74.536858,40.771477 a 2.2444088,2.2444088 0 0 1 -0.921571,-3.036043 2.2444088,2.2444088 0 0 1 3.035319,-0.92395 2.2444088,2.2444088 0 0 1 0.926328,3.034595 2.2444088,2.2444088 0 0 1 -3.033867,0.928706"
       sodipodi:open="true" />
    <path
       style="fill:#80b3ff;stroke:#000080;stroke-width:0.25;stroke-linecap:round;stroke-linejoin:round;stroke-miterlimit:4;stroke-dasharray:none;stroke-dashoffset:0"
       id="path1596"
       sodipodi:type="arc"
       sodipodi:cx="63.460251"
       sodipodi:cy="46.948635"
       sodipodi:rx="2.2444088"
       sodipodi:ry="2.2444088"
       sodipodi:start="2.0618818"
       sodipodi:end="2.0587471"
       sodipodi:arc-type="arc"
       d="m 62.401825,48.927803 a 2.2444088,2.2444088 0 0 1 -0.921571,-3.036042 2.2444088,2.2444088 0 0 1 3.035319,-0.92395 2.2444088,2.2444088 0 0 1 0.926329,3.034594 2.2444088,2.2444088 0 0 1 -3.033868,0.928706"
       sodipodi:open="true" />
    <path
       style="fill:#aade87;stroke:#008000;stroke-width:0.25;stroke-linecap:round;stroke-linejoin:round;stroke-miterlimit:4;stroke-dasharray:none;stroke-dashoffset:0"
       id="path1724"
       sodipodi:type="arc"
       sodipodi:cx="80.767586"
       sodipodi:cy="43.566746"
       sodipodi:rx="2.2444088"
       sodipodi:ry="2.2444088"
       sodipodi:start="2.0618818"
       sodipodi:end="2.0587471"
       sodipodi:arc-type="arc"
       d="m 79.70916,45.545914 a 2.2444088,2.2444088 0 0 1 -0.921571,-3.036043 2.2444088,2.2444088 0 0 1 3.035319,-0.92395 2.2444088,2.2444088 0 0 1 0.926329,3.034595 2.2444088,2.2444088 0 0 1 -3.033868,0.928706"
       sodipodi:open="true" />
    <path
       style="fill:#aade87;stroke:#008000;stroke-width:0.25;stroke-linecap:round;stroke-linejoin:round;stroke-miterlimit:4;stroke-dasharray:none;stroke-dashoffset:0"
       id="path1726"
       sodipodi:type="arc"
       sodipodi:cx="83.950546"
       sodipodi:cy="32.824265"
       sodipodi:rx="2.2444088"
       sodipodi:ry="2.2444088"
       sodipodi:start="2.0618818"
       sodipodi:end="2.0587471"
       sodipodi:arc-type="arc"
       d="m 82.89212,34.803432 a 2.2444088,2.2444088 0 0 1 -0.921571,-3.036042 2.2444088,2.2444088 0 0 1 3.03532,-0.92395 2.2444088,2.2444088 0 0 1 0.926328,3.034594 2.2444088,2.2444088 0 0 1 -3.033867,0.928707"
       sodipodi:open="true" />
    <path
       style="fill:#e580ff;stroke:#800080;stroke-width:0.25;stroke-linecap:round;stroke-linejoin:round;stroke-miterlimit:4;stroke-dasharray:none;stroke-dashoffset:0"
       id="path1728"
       sodipodi:type="arc"
       sodipodi:cx="56.298595"
       sodipodi:cy="21.882849"
       sodipodi:rx="2.2444088"
       sodipodi:ry="2.2444088"
       sodipodi:start="2.0618818"
       sodipodi:end="2.0587471"
       sodipodi:arc-type="arc"
       d="m 55.24017,23.862017 a 2.2444088,2.2444088 0 0 1 -0.921571,-3.036043 2.2444088,2.2444088 0 0 1 3.035319,-0.92395 2.2444088,2.2444088 0 0 1 0.926328,3.034595 2.2444088,2.2444088 0 0 1 -3.033867,0.928706"
       sodipodi:open="true" />
    <path
       style="fill:#80b3ff;stroke:#000080;stroke-width:0.25;stroke-linecap:round;stroke-linejoin:round;stroke-miterlimit:4;stroke-dasharray:none;stroke-dashoffset:0"
       id="path1732"
       sodipodi:type="arc"
       sodipodi:cx="55.303925"
       sodipodi:cy="52.916679"
       sodipodi:rx="2.2444088"
       sodipodi:ry="2.2444088"
       sodipodi:start="2.0618818"
       sodipodi:end="2.0587471"
       sodipodi:arc-type="arc"
       d="m 54.245499,54.895847 a 2.2444088,2.2444088 0 0 1 -0.921571,-3.036042 2.2444088,2.2444088 0 0 1 3.035319,-0.92395 2.2444088,2.2444088 0 0 1 0.926328,3.034594 2.2444088,2.2444088 0 0 1 -3.033867,0.928706"
       sodipodi:open="true" />
    <path
       style="fill:#80b3ff;stroke:#000080;stroke-width:0.25;stroke-linecap:round;stroke-linejoin:round;stroke-miterlimit:4;stroke-dasharray:none;stroke-dashoffset:0"
       id="path1734"
       sodipodi:type="arc"
       sodipodi:cx="60.675167"
       sodipodi:cy="62.266621"
       sodipodi:rx="2.2444088"
       sodipodi:ry="2.2444088"
       sodipodi:start="2.0618818"
       sodipodi:end="2.0587471"
       sodipodi:arc-type="arc"
       d="m 59.616741,64.245789 a 2.2444088,2.2444088 0 0 1 -0.921571,-3.036043 2.2444088,2.2444088 0 0 1 3.03532,-0.92395 2.2444088,2.2444088 0 0 1 0.926328,3.034595 2.2444088,2.2444088 0 0 1 -3.033867,0.928706"
       sodipodi:open="true" />
    <path
       style="fill:#80b3ff;stroke:#000080;stroke-width:0.25;stroke-linecap:round;stroke-linejoin:round;stroke-miterlimit:4;stroke-dasharray:none;stroke-dashoffset:0"
       id="path1736"
       sodipodi:type="arc"
       sodipodi:cx="70.422974"
       sodipodi:cy="53.115616"
       sodipodi:rx="2.2444088"
       sodipodi:ry="2.2444088"
       sodipodi:start="2.0618818"
       sodipodi:end="2.0587471"
       sodipodi:arc-type="arc"
       d="m 69.364548,55.094784 a 2.2444088,2.2444088 0 0 1 -0.921571,-3.036043 2.2444088,2.2444088 0 0 1 3.035319,-0.92395 2.2444088,2.2444088 0 0 1 0.926328,3.034595 2.2444088,2.2444088 0 0 1 -3.033867,0.928706"
       sodipodi:open="true" />
    <path
       style="fill:#e9afaf;stroke:#800000;stroke-width:0.25;stroke-linecap:round;stroke-linejoin:round;stroke-miterlimit:4;stroke-dasharray:none;stroke-dashoffset:0"
       id="path1738"
       sodipodi:type="arc"
       sodipodi:cx="43.964638"
       sodipodi:cy="49.53479"
       sodipodi:rx="2.2444088"
       sodipodi:ry="2.2444088"
       sodipodi:start="2.0618818"
       sodipodi:end="2.0587471"
       sodipodi:arc-type="arc"
       d="m 42.906212,51.513958 a 2.2444088,2.2444088 0 0 1 -0.921571,-3.036042 2.2444088,2.2444088 0 0 1 3.035319,-0.92395 2.2444088,2.2444088 0 0 1 0.926329,3.034594 2.2444088,2.2444088 0 0 1 -3.033868,0.928706"
       sodipodi:open="true" />
    <path
       style="fill:#aade87;stroke:#008000;stroke-width:0.25;stroke-linecap:round;stroke-linejoin:round;stroke-miterlimit:4;stroke-dasharray:none;stroke-dashoffset:0"
       id="path1820"
       sodipodi:type="arc"
       sodipodi:cx="72.611259"
       sodipodi:cy="31.033852"
       sodipodi:rx="2.2444088"
       sodipodi:ry="2.2444088"
       sodipodi:start="2.0618818"
       sodipodi:end="2.0587471"
       sodipodi:arc-type="arc"
       d="m 71.552834,33.01302 a 2.2444088,2.2444088 0 0 1 -0.921571,-3.036043 2.2444088,2.2444088 0 0 1 3.035319,-0.92395 2.2444088,2.2444088 0 0 1 0.926328,3.034594 2.2444088,2.2444088 0 0 1 -3.033867,0.928707"
       sodipodi:open="true" />
  </g>
</svg>
